<svg xmlns="http://www.w3.org/2000/svg" xmlns:xlink="http://www.w3.org/1999/xlink" width="1920" zoomAndPan="magnify" viewBox="0 0 1440 809.999993" height="1080" preserveAspectRatio="xMidYMid meet" version="1.0"><defs><g/><clipPath id="854a1b01e8"><rect x="0" width="238" y="0" height="89"/></clipPath><clipPath id="140fad728e"><rect x="0" width="223" y="0" height="89"/></clipPath></defs><g transform="matrix(1, 0, 0, 1, 601, 360)"><g clip-path="url(#854a1b01e8)"><g fill="#1b1729" fill-opacity="1"><g transform="translate(7.249976, 65.719919)"><g><path d="M 9.371094 -30.695312 C 7.453125 -30.695312 5.652344 -31 3.964844 -31.609375 C 2.125 -32.273438 0.488281 -33.269531 -0.941406 -34.597656 C -2.390625 -35.945312 -3.496094 -37.492188 -4.257812 -39.246094 C -5.019531 -40.992188 -5.398438 -42.855469 -5.398438 -44.832031 C -5.398438 -46.816406 -5.023438 -48.679688 -4.273438 -50.425781 C -3.511719 -52.207031 -2.402344 -53.773438 -0.941406 -55.128906 C 0.488281 -56.460938 2.125 -57.457031 3.964844 -58.121094 C 5.652344 -58.730469 7.453125 -59.035156 9.371094 -59.035156 C 11.28125 -59.035156 13.078125 -58.726562 14.765625 -58.109375 C 16.582031 -57.445312 18.199219 -56.453125 19.621094 -55.128906 C 21.082031 -53.773438 22.191406 -52.207031 22.957031 -50.425781 C 23.703125 -48.679688 24.078125 -46.816406 24.078125 -44.832031 C 24.078125 -42.855469 23.699219 -40.992188 22.9375 -39.246094 C 22.175781 -37.492188 21.070312 -35.945312 19.621094 -34.597656 C 18.199219 -33.277344 16.582031 -32.285156 14.765625 -31.621094 C 13.078125 -31.003906 11.28125 -30.695312 9.371094 -30.695312 Z M 9.371094 -47.320312 C 9.386719 -47.320312 9.394531 -47.320312 9.402344 -47.320312 C 9.386719 -47.316406 9.371094 -47.316406 9.351562 -47.3125 C 9.261719 -47.296875 9.164062 -47.269531 9.058594 -47.234375 C 8.773438 -47.128906 8.519531 -46.976562 8.304688 -46.773438 C 8.058594 -46.542969 7.855469 -46.246094 7.695312 -45.878906 C 7.535156 -45.511719 7.457031 -45.164062 7.457031 -44.832031 C 7.457031 -44.539062 7.53125 -44.222656 7.675781 -43.878906 C 7.839844 -43.503906 8.046875 -43.195312 8.304688 -42.957031 C 8.519531 -42.753906 8.773438 -42.601562 9.058594 -42.496094 C 9.164062 -42.457031 9.261719 -42.429688 9.351562 -42.417969 C 9.371094 -42.414062 9.386719 -42.410156 9.402344 -42.410156 C 9.394531 -42.410156 9.386719 -42.410156 9.371094 -42.410156 C 9.347656 -42.410156 9.328125 -42.410156 9.316406 -42.410156 C 9.320312 -42.410156 9.328125 -42.410156 9.34375 -42.414062 C 9.417969 -42.425781 9.503906 -42.449219 9.601562 -42.484375 C 9.890625 -42.589844 10.148438 -42.746094 10.378906 -42.957031 C 10.632812 -43.195312 10.84375 -43.503906 11.003906 -43.878906 C 11.152344 -44.222656 11.222656 -44.539062 11.222656 -44.832031 C 11.222656 -45.164062 11.144531 -45.511719 10.984375 -45.878906 C 10.824219 -46.246094 10.621094 -46.542969 10.378906 -46.773438 C 10.148438 -46.984375 9.890625 -47.140625 9.601562 -47.246094 C 9.503906 -47.28125 9.417969 -47.304688 9.34375 -47.316406 C 9.328125 -47.320312 9.320312 -47.320312 9.316406 -47.320312 C 9.328125 -47.320312 9.347656 -47.320312 9.371094 -47.320312 Z M 23.066406 -35.335938 L 23.066406 8.3125 L -4.386719 8.3125 L -4.386719 -43.644531 L 23.066406 -43.644531 Z M 6.441406 -35.335938 L 14.753906 -35.335938 L 14.753906 -27.023438 L 3.925781 -27.023438 L 3.925781 -35.335938 L 12.238281 -35.335938 L 12.238281 0 L 3.925781 0 L 3.925781 -8.3125 L 14.753906 -8.3125 L 14.753906 0 L 6.441406 0 Z M 6.441406 -35.335938 "/></g></g></g><g fill="#1b1729" fill-opacity="1"><g transform="translate(25.930354, 65.719919)"><g><path d="M 18.300781 8.816406 C 14.058594 8.816406 10.199219 8.058594 6.730469 6.535156 C 3.003906 4.902344 0.0117188 2.59375 -2.253906 -0.390625 C -4.636719 -3.53125 -5.972656 -7.058594 -6.261719 -10.972656 L -6.921875 -19.898438 L 20.222656 -19.898438 L 20.996094 -12.445312 C 20.9375 -13 20.757812 -13.542969 20.457031 -14.066406 C 20.175781 -14.558594 19.828125 -14.957031 19.425781 -15.261719 C 19.152344 -15.464844 18.863281 -15.613281 18.558594 -15.707031 C 18.390625 -15.757812 18.261719 -15.785156 18.171875 -15.785156 C 18.199219 -15.785156 18.21875 -15.785156 18.238281 -15.785156 C 18.234375 -15.785156 18.230469 -15.785156 18.21875 -15.78125 C 18.140625 -15.773438 18.042969 -15.753906 17.9375 -15.726562 C 17.445312 -15.605469 16.957031 -15.371094 16.476562 -15.027344 C 15.800781 -14.542969 15.246094 -13.90625 14.820312 -13.113281 C 14.34375 -12.226562 14.105469 -11.296875 14.105469 -10.320312 C 14.105469 -9.074219 14.480469 -7.917969 15.226562 -6.859375 C 15.820312 -6.011719 16.53125 -5.398438 17.359375 -5.019531 C 16.773438 -5.289062 15.550781 -5.65625 13.6875 -6.121094 C 10.859375 -6.78125 8.421875 -7.507812 6.367188 -8.304688 C 3.394531 -9.457031 0.84375 -11.257812 -1.28125 -13.714844 C -3.855469 -16.691406 -5.144531 -20.414062 -5.144531 -24.886719 C -5.144531 -28.597656 -4.117188 -31.988281 -2.058594 -35.058594 C -0.0507812 -38.046875 2.765625 -40.351562 6.394531 -41.972656 C 9.648438 -43.425781 13.363281 -44.152344 17.539062 -44.152344 C 24.027344 -44.152344 29.328125 -42.386719 33.4375 -38.851562 C 35.554688 -37.03125 37.226562 -34.898438 38.460938 -32.457031 C 39.648438 -30.09375 40.390625 -27.5 40.6875 -24.675781 L 41.648438 -15.5 L 15.171875 -15.5 L 14.183594 -22.675781 C 14.238281 -22.261719 14.386719 -21.84375 14.617188 -21.425781 C 14.886719 -20.941406 15.230469 -20.53125 15.648438 -20.203125 C 16.023438 -19.90625 16.417969 -19.695312 16.832031 -19.570312 C 17.015625 -19.515625 17.148438 -19.488281 17.222656 -19.488281 L 17.226562 -19.492188 C 17.324219 -19.5 17.4375 -19.523438 17.5625 -19.554688 C 18.105469 -19.691406 18.636719 -19.945312 19.160156 -20.320312 C 19.917969 -20.867188 20.519531 -21.574219 20.960938 -22.445312 C 21.394531 -23.292969 21.609375 -24.171875 21.609375 -25.074219 C 21.609375 -26.332031 21.234375 -27.492188 20.484375 -28.550781 C 19.910156 -29.359375 19.234375 -29.949219 18.453125 -30.316406 C 18.972656 -30.070312 20.070312 -29.761719 21.75 -29.390625 L 21.886719 -29.359375 L 22.023438 -29.324219 C 24.980469 -28.5625 27.441406 -27.789062 29.414062 -27.003906 C 32.332031 -25.84375 34.859375 -24.015625 36.996094 -21.515625 C 39.535156 -18.546875 40.84375 -14.839844 40.921875 -10.402344 C 40.921875 -6.460938 39.828125 -2.957031 37.632812 0.113281 C 35.570312 3.003906 32.734375 5.21875 29.132812 6.757812 C 25.914062 8.128906 22.304688 8.816406 18.300781 8.816406 Z M 18.300781 -7.804688 C 20.039062 -7.804688 21.472656 -8.046875 22.601562 -8.53125 C 23.347656 -8.847656 23.847656 -9.1875 24.105469 -9.546875 C 24.234375 -9.730469 24.300781 -9.917969 24.300781 -10.113281 C 24.296875 -10.5 24.261719 -10.777344 24.203125 -10.957031 C 24.222656 -10.894531 24.277344 -10.816406 24.363281 -10.714844 C 24.007812 -11.128906 23.644531 -11.410156 23.273438 -11.558594 C 21.949219 -12.082031 20.148438 -12.640625 17.871094 -13.230469 L 19.945312 -21.277344 L 18.144531 -13.164062 C 15.265625 -13.804688 13.007812 -14.507812 11.375 -15.277344 C 9.515625 -16.152344 8.03125 -17.371094 6.917969 -18.941406 C 5.632812 -20.761719 4.988281 -22.804688 4.988281 -25.074219 C 4.988281 -26.824219 5.371094 -28.457031 6.140625 -29.972656 C 6.921875 -31.507812 8.027344 -32.789062 9.460938 -33.820312 C 11.585938 -35.347656 14.171875 -36.109375 17.222656 -36.109375 C 20.628906 -36.109375 23.539062 -35.152344 25.957031 -33.242188 C 27.28125 -32.195312 28.347656 -30.941406 29.15625 -29.484375 C 29.925781 -28.09375 30.425781 -26.582031 30.648438 -24.945312 L 22.417969 -23.808594 L 22.417969 -32.121094 L 32.421875 -32.121094 L 32.421875 -23.808594 L 24.15625 -22.945312 C 24.070312 -23.75 23.890625 -24.429688 23.613281 -24.980469 C 23.378906 -25.445312 23.039062 -25.867188 22.601562 -26.246094 C 21.605469 -27.101562 19.917969 -27.53125 17.539062 -27.53125 C 15.722656 -27.53125 14.269531 -27.285156 13.171875 -26.796875 C 12.453125 -26.472656 11.976562 -26.140625 11.746094 -25.796875 C 11.566406 -25.53125 11.476562 -25.226562 11.476562 -24.886719 C 11.476562 -24.550781 11.5 -24.316406 11.539062 -24.183594 C 11.5 -24.308594 11.414062 -24.445312 11.285156 -24.59375 C 11.609375 -24.222656 11.972656 -23.957031 12.375 -23.800781 C 13.699219 -23.289062 15.480469 -22.769531 17.71875 -22.246094 C 20.585938 -21.53125 22.78125 -20.820312 24.308594 -20.121094 C 26.191406 -19.253906 27.691406 -18.023438 28.816406 -16.429688 C 30.089844 -14.621094 30.726562 -12.582031 30.726562 -10.320312 C 30.726562 -8.503906 30.304688 -6.804688 29.457031 -5.234375 C 28.664062 -3.757812 27.554688 -2.511719 26.140625 -1.5 C 23.957031 0.0585938 21.300781 0.839844 18.171875 0.839844 C 14.847656 0.839844 11.941406 -0.09375 9.449219 -1.964844 C 8.03125 -3.027344 6.898438 -4.300781 6.042969 -5.785156 C 5.171875 -7.300781 4.644531 -8.949219 4.460938 -10.734375 L 12.726562 -11.589844 L 12.726562 -3.277344 L 2.027344 -3.277344 L 2.027344 -11.589844 L 10.316406 -12.203125 C 10.363281 -11.554688 10.589844 -10.96875 10.992188 -10.4375 C 11.515625 -9.746094 12.320312 -9.164062 13.40625 -8.6875 C 14.75 -8.097656 16.378906 -7.804688 18.300781 -7.804688 Z M 18.300781 -7.804688 "/></g></g></g><g fill="#1b1729" fill-opacity="1"><g transform="translate(61.26476, 65.719919)"><g><path d="M 18.796875 4.886719 L 8.03125 -9.933594 L 14.753906 -14.816406 L 23.066406 -14.816406 L 23.066406 8.3125 L -4.386719 8.3125 L -4.386719 -55.171875 L 23.066406 -55.171875 L 23.066406 -20.960938 L 14.753906 -20.960938 L 8.085938 -25.921875 L 21.28125 -43.644531 L 56.496094 -43.644531 L 30.527344 -12.300781 L 24.125 -17.605469 L 30.484375 -22.957031 L 56.804688 8.3125 L 21.285156 8.3125 Z M 32.242188 -4.886719 L 25.519531 0 L 25.519531 -8.3125 L 38.945312 -8.3125 L 38.945312 0 L 32.585938 5.351562 L 13.296875 -17.5625 L 32.417969 -40.636719 L 38.816406 -35.335938 L 38.816406 -27.023438 L 25.457031 -27.023438 L 25.457031 -35.335938 L 32.121094 -30.371094 L 6.441406 4.121094 L 6.441406 -46.859375 L 14.753906 -46.859375 L 14.753906 -38.546875 L 3.925781 -38.546875 L 3.925781 -46.859375 L 12.238281 -46.859375 L 12.238281 0 L 3.925781 0 L 3.925781 -8.3125 L 14.753906 -8.3125 L 14.753906 0 L 6.441406 0 L 6.441406 -40.398438 Z M 32.242188 -4.886719 "/></g></g></g><g fill="#1b1729" fill-opacity="1"><g transform="translate(100.398551, 65.719919)"><g><path d="M 20.011719 8.816406 C 15.160156 8.816406 10.742188 7.753906 6.753906 5.621094 C 2.589844 3.398438 -0.675781 0.226562 -3.050781 -3.890625 C -5.375 -7.917969 -6.539062 -12.511719 -6.539062 -17.667969 C -6.539062 -22.789062 -5.363281 -27.375 -3.007812 -31.429688 C -0.609375 -35.566406 2.683594 -38.746094 6.871094 -40.96875 C 10.875 -43.089844 15.296875 -44.152344 20.136719 -44.152344 C 24.976562 -44.152344 29.398438 -43.089844 33.402344 -40.96875 C 37.589844 -38.746094 40.882812 -35.566406 43.285156 -31.429688 C 45.636719 -27.375 46.8125 -22.789062 46.8125 -17.667969 C 46.8125 -12.527344 45.617188 -7.925781 43.226562 -3.863281 C 40.804688 0.261719 37.488281 3.433594 33.285156 5.644531 C 29.265625 7.761719 24.839844 8.816406 20.011719 8.816406 Z M 20.011719 -7.804688 C 22.101562 -7.804688 23.945312 -8.222656 25.542969 -9.066406 C 26.953125 -9.808594 28.070312 -10.878906 28.898438 -12.285156 C 29.757812 -13.75 30.1875 -15.542969 30.1875 -17.667969 C 30.1875 -19.808594 29.761719 -21.613281 28.90625 -23.089844 C 28.097656 -24.484375 27 -25.546875 25.613281 -26.28125 C 24.046875 -27.113281 22.21875 -27.53125 20.136719 -27.53125 C 18.054688 -27.53125 16.226562 -27.113281 14.660156 -26.28125 C 13.273438 -25.546875 12.175781 -24.484375 11.367188 -23.089844 C 10.511719 -21.613281 10.085938 -19.808594 10.085938 -17.667969 C 10.085938 -15.476562 10.503906 -13.652344 11.347656 -12.195312 C 12.136719 -10.824219 13.21875 -9.769531 14.585938 -9.039062 C 16.128906 -8.214844 17.9375 -7.804688 20.011719 -7.804688 Z M 20.011719 -17.175781 C 19.902344 -17.175781 19.761719 -17.140625 19.59375 -17.066406 C 19.445312 -17.003906 19.34375 -16.945312 19.296875 -16.894531 C 19.167969 -16.757812 19.085938 -16.644531 19.054688 -16.554688 C 19.132812 -16.785156 19.171875 -17.15625 19.171875 -17.667969 C 19.171875 -18.203125 19.128906 -18.597656 19.046875 -18.847656 C 19.074219 -18.769531 19.148438 -18.664062 19.277344 -18.527344 C 19.355469 -18.445312 19.484375 -18.363281 19.671875 -18.28125 C 19.859375 -18.199219 20.015625 -18.15625 20.136719 -18.15625 C 20.214844 -18.15625 20.339844 -18.195312 20.507812 -18.265625 C 20.710938 -18.351562 20.867188 -18.453125 20.96875 -18.5625 C 21.117188 -18.722656 21.203125 -18.84375 21.230469 -18.933594 C 21.144531 -18.664062 21.101562 -18.242188 21.101562 -17.667969 C 21.101562 -17.105469 21.144531 -16.6875 21.230469 -16.417969 C 21.234375 -16.402344 21.238281 -16.394531 21.238281 -16.390625 C 21.234375 -16.410156 21.222656 -16.429688 21.210938 -16.453125 C 21.160156 -16.539062 21.097656 -16.628906 21.019531 -16.714844 C 20.914062 -16.832031 20.75 -16.941406 20.527344 -17.039062 C 20.316406 -17.128906 20.144531 -17.175781 20.011719 -17.175781 Z M 20.011719 -0.554688 C 17.808594 -0.554688 15.738281 -0.980469 13.808594 -1.832031 C 11.867188 -2.691406 10.160156 -3.9375 8.679688 -5.574219 C 5.878906 -8.675781 4.480469 -12.707031 4.480469 -17.667969 C 4.480469 -22.714844 5.917969 -26.785156 8.792969 -29.878906 C 10.289062 -31.488281 12.015625 -32.710938 13.972656 -33.546875 C 15.890625 -34.371094 17.945312 -34.78125 20.136719 -34.78125 C 22.328125 -34.78125 24.386719 -34.359375 26.316406 -33.515625 C 28.246094 -32.675781 29.953125 -31.453125 31.445312 -29.851562 C 34.34375 -26.734375 35.792969 -22.675781 35.792969 -17.667969 C 35.792969 -15.351562 35.46875 -13.21875 34.816406 -11.277344 C 34.058594 -9.011719 32.886719 -7.050781 31.296875 -5.394531 C 29.792969 -3.824219 28.085938 -2.628906 26.175781 -1.804688 C 24.242188 -0.96875 22.1875 -0.554688 20.011719 -0.554688 Z M 20.011719 -0.554688 "/></g></g></g><g fill="#1b1729" fill-opacity="1"><g transform="translate(140.735489, 65.719919)"><g><path d="M -4.386719 -55.171875 L 23.066406 -55.171875 L 23.066406 8.3125 L -4.386719 8.3125 Z M -4.386719 -55.171875 "/></g></g></g><g fill="#1b1729" fill-opacity="1"><g transform="translate(159.415868, 65.719919)"><g><path d="M -6.539062 -17.730469 C -6.539062 -22.667969 -5.558594 -27.09375 -3.601562 -31.007812 C -1.535156 -35.148438 1.34375 -38.367188 5.03125 -40.671875 C 8.742188 -42.992188 12.847656 -44.152344 17.351562 -44.152344 C 21.242188 -44.152344 24.738281 -43.3125 27.851562 -41.636719 C 31.039062 -39.917969 33.527344 -37.601562 35.320312 -34.6875 L 28.242188 -30.332031 L 19.929688 -30.332031 L 19.929688 -43.644531 L 47.382812 -43.644531 L 47.382812 8.3125 L 19.929688 8.3125 L 19.929688 -5.003906 L 28.242188 -5.003906 L 35.238281 -0.515625 C 33.410156 2.335938 30.925781 4.609375 27.785156 6.300781 C 24.675781 7.980469 21.175781 8.816406 17.289062 8.816406 C 12.808594 8.816406 8.707031 7.636719 4.984375 5.277344 C 1.3125 2.949219 -1.554688 -0.289062 -3.613281 -4.441406 C -5.5625 -8.371094 -6.539062 -12.800781 -6.539062 -17.730469 Z M 10.085938 -17.730469 C 10.085938 -15.398438 10.480469 -13.433594 11.277344 -11.832031 C 11.960938 -10.453125 12.828125 -9.429688 13.886719 -8.761719 C 14.890625 -8.125 16.023438 -7.804688 17.289062 -7.804688 C 18.378906 -7.804688 19.25 -7.980469 19.894531 -8.328125 C 20.511719 -8.660156 20.964844 -9.046875 21.246094 -9.488281 L 36.554688 -33.367188 L 36.554688 0 L 28.242188 0 L 28.242188 -8.3125 L 39.070312 -8.3125 L 39.070312 0 L 30.757812 0 L 30.757812 -35.335938 L 39.070312 -35.335938 L 39.070312 -27.023438 L 28.242188 -27.023438 L 28.242188 -35.335938 L 36.554688 -35.335938 L 36.554688 -0.96875 L 21.164062 -25.976562 C 20.929688 -26.355469 20.527344 -26.699219 19.960938 -27.007812 C 19.3125 -27.355469 18.441406 -27.53125 17.351562 -27.53125 C 16.027344 -27.53125 14.855469 -27.210938 13.839844 -26.578125 C 12.796875 -25.925781 11.941406 -24.925781 11.265625 -23.574219 C 10.476562 -22 10.085938 -20.054688 10.085938 -17.730469 Z M 19.929688 -17.667969 C 19.929688 -18.074219 19.902344 -18.363281 19.839844 -18.535156 C 19.863281 -18.46875 19.914062 -18.394531 19.996094 -18.308594 C 20.027344 -18.277344 20.109375 -18.230469 20.230469 -18.179688 C 20.363281 -18.121094 20.457031 -18.09375 20.515625 -18.09375 C 20.5625 -18.09375 20.644531 -18.121094 20.765625 -18.171875 C 20.886719 -18.222656 20.964844 -18.265625 20.996094 -18.300781 C 21.09375 -18.402344 21.160156 -18.496094 21.191406 -18.578125 C 21.132812 -18.414062 21.101562 -18.132812 21.101562 -17.730469 C 21.101562 -17.320312 21.132812 -17.023438 21.199219 -16.839844 C 21.183594 -16.890625 21.140625 -16.949219 21.074219 -17.015625 C 21.085938 -17.007812 21.089844 -17 21.09375 -16.996094 C 21.085938 -17.003906 21.070312 -17.015625 21.054688 -17.027344 C 20.992188 -17.070312 20.921875 -17.113281 20.839844 -17.148438 C 20.695312 -17.210938 20.589844 -17.238281 20.515625 -17.238281 C 20.457031 -17.238281 20.363281 -17.210938 20.230469 -17.15625 C 20.109375 -17.101562 20.027344 -17.058594 19.996094 -17.027344 C 19.914062 -16.941406 19.863281 -16.863281 19.839844 -16.796875 C 19.902344 -16.972656 19.929688 -17.261719 19.929688 -17.667969 Z M 36.554688 -17.667969 C 36.554688 -15.371094 36.210938 -13.242188 35.519531 -11.285156 C 34.75 -9.085938 33.570312 -7.164062 31.992188 -5.515625 C 30.460938 -3.921875 28.71875 -2.707031 26.769531 -1.871094 C 24.8125 -1.035156 22.730469 -0.617188 20.515625 -0.617188 C 18.289062 -0.617188 16.195312 -1.042969 14.226562 -1.898438 C 12.273438 -2.742188 10.53125 -3.972656 9.003906 -5.589844 C 7.4375 -7.242188 6.273438 -9.164062 5.507812 -11.351562 C 4.824219 -13.3125 4.480469 -15.4375 4.480469 -17.730469 C 4.480469 -20.03125 4.824219 -22.160156 5.515625 -24.117188 C 6.296875 -26.324219 7.484375 -28.246094 9.082031 -29.890625 C 10.613281 -31.464844 12.355469 -32.664062 14.300781 -33.484375 C 16.246094 -34.304688 18.320312 -34.71875 20.515625 -34.71875 C 22.730469 -34.71875 24.8125 -34.296875 26.769531 -33.460938 C 28.71875 -32.628906 30.460938 -31.414062 31.992188 -29.816406 C 33.570312 -28.167969 34.75 -26.246094 35.519531 -24.046875 C 36.210938 -22.089844 36.554688 -19.964844 36.554688 -17.667969 Z M 36.554688 -17.667969 "/></g></g></g><g fill="#1b1729" fill-opacity="1"><g transform="translate(202.412393, 65.719919)"><g><path d="M 7.792969 -33.984375 C 9.769531 -37.015625 12.265625 -39.421875 15.285156 -41.199219 C 18.488281 -43.082031 22.003906 -44.027344 25.835938 -44.027344 L 34.148438 -44.027344 L 34.148438 -15.941406 L 22.859375 -15.941406 C 22.285156 -15.941406 21.867188 -15.902344 21.601562 -15.828125 C 21.753906 -15.871094 21.953125 -16 22.199219 -16.207031 C 22.6875 -16.628906 23.003906 -17.058594 23.148438 -17.496094 C 23.09375 -17.328125 23.066406 -16.960938 23.066406 -16.402344 L 23.066406 8.3125 L -4.386719 8.3125 L -4.386719 -43.644531 L 23.066406 -43.644531 L 23.066406 -29.445312 L 14.753906 -29.445312 Z M 6.441406 -1.488281 L 6.441406 -35.335938 L 14.753906 -35.335938 L 14.753906 -27.023438 L 3.925781 -27.023438 L 3.925781 -35.335938 L 12.238281 -35.335938 L 12.238281 0 L 3.925781 0 L 3.925781 -8.3125 L 14.753906 -8.3125 L 14.753906 0 L 6.441406 0 L 6.441406 -16.402344 C 6.441406 -21.859375 8.082031 -25.996094 11.363281 -28.816406 C 14.273438 -31.3125 18.105469 -32.5625 22.859375 -32.5625 L 25.835938 -32.5625 L 25.835938 -24.253906 L 17.523438 -24.253906 L 17.523438 -35.714844 L 25.835938 -35.714844 L 25.835938 -27.402344 C 25.023438 -27.402344 24.320312 -27.226562 23.722656 -26.875 C 22.941406 -26.414062 22.273438 -25.757812 21.714844 -24.90625 Z M 6.441406 -1.488281 "/></g></g></g><g fill="#1b1729" fill-opacity="1"><g transform="translate(7.249976, 65.719919)"><g><path d="M 9.375 -39.015625 C 7.46875 -39.015625 5.910156 -39.570312 4.703125 -40.6875 C 3.503906 -41.800781 2.90625 -43.1875 2.90625 -44.84375 C 2.90625 -46.53125 3.503906 -47.929688 4.703125 -49.046875 C 5.910156 -50.160156 7.46875 -50.71875 9.375 -50.71875 C 11.226562 -50.71875 12.753906 -50.160156 13.953125 -49.046875 C 15.160156 -47.929688 15.765625 -46.53125 15.765625 -44.84375 C 15.765625 -43.1875 15.160156 -41.800781 13.953125 -40.6875 C 12.753906 -39.570312 11.226562 -39.015625 9.375 -39.015625 Z M 14.75 -35.34375 L 14.75 0 L 3.921875 0 L 3.921875 -35.34375 Z M 14.75 -35.34375 "/></g></g></g><g fill="#1b1729" fill-opacity="1"><g transform="translate(25.930354, 65.719919)"><g><path d="M 18.296875 0.5 C 15.210938 0.5 12.46875 -0.0234375 10.0625 -1.078125 C 7.65625 -2.128906 5.753906 -3.570312 4.359375 -5.40625 C 2.972656 -7.25 2.195312 -9.3125 2.03125 -11.59375 L 12.734375 -11.59375 C 12.859375 -10.363281 13.425781 -9.367188 14.4375 -8.609375 C 15.445312 -7.847656 16.691406 -7.46875 18.171875 -7.46875 C 19.523438 -7.46875 20.570312 -7.734375 21.3125 -8.265625 C 22.050781 -8.796875 22.421875 -9.484375 22.421875 -10.328125 C 22.421875 -11.335938 21.890625 -12.082031 20.828125 -12.5625 C 19.773438 -13.050781 18.066406 -13.59375 15.703125 -14.1875 C 13.171875 -14.78125 11.0625 -15.398438 9.375 -16.046875 C 7.6875 -16.703125 6.226562 -17.738281 5 -19.15625 C 3.78125 -20.570312 3.171875 -22.484375 3.171875 -24.890625 C 3.171875 -26.910156 3.726562 -28.753906 4.84375 -30.421875 C 5.957031 -32.097656 7.601562 -33.421875 9.78125 -34.390625 C 11.957031 -35.359375 14.546875 -35.84375 17.546875 -35.84375 C 21.972656 -35.84375 25.460938 -34.742188 28.015625 -32.546875 C 30.578125 -30.347656 32.046875 -27.4375 32.421875 -23.8125 L 22.421875 -23.8125 C 22.253906 -25.03125 21.710938 -26 20.796875 -26.71875 C 19.890625 -27.4375 18.695312 -27.796875 17.21875 -27.796875 C 15.957031 -27.796875 14.988281 -27.550781 14.3125 -27.0625 C 13.632812 -26.582031 13.296875 -25.921875 13.296875 -25.078125 C 13.296875 -24.066406 13.832031 -23.304688 14.90625 -22.796875 C 15.988281 -22.285156 17.671875 -21.78125 19.953125 -21.28125 C 22.566406 -20.601562 24.695312 -19.9375 26.34375 -19.28125 C 27.988281 -18.625 29.429688 -17.566406 30.671875 -16.109375 C 31.921875 -14.660156 32.566406 -12.710938 32.609375 -10.265625 C 32.609375 -8.191406 32.023438 -6.34375 30.859375 -4.71875 C 29.703125 -3.09375 28.035156 -1.816406 25.859375 -0.890625 C 23.691406 0.0351562 21.171875 0.5 18.296875 0.5 Z M 18.296875 0.5 "/></g></g></g><g fill="#1b1729" fill-opacity="1"><g transform="translate(61.26476, 65.719919)"><g><path d="M 25.515625 0 L 14.75 -14.8125 L 14.75 0 L 3.921875 0 L 3.921875 -46.859375 L 14.75 -46.859375 L 14.75 -20.96875 L 25.453125 -35.34375 L 38.8125 -35.34375 L 24.125 -17.609375 L 38.953125 0 Z M 25.515625 0 "/></g></g></g><g fill="#1b1729" fill-opacity="1"><g transform="translate(100.398551, 65.719919)"><g><path d="M 20.015625 0.5 C 16.546875 0.5 13.425781 -0.234375 10.65625 -1.703125 C 7.894531 -3.179688 5.722656 -5.289062 4.140625 -8.03125 C 2.554688 -10.78125 1.765625 -13.992188 1.765625 -17.671875 C 1.765625 -21.296875 2.566406 -24.488281 4.171875 -27.25 C 5.785156 -30.019531 7.984375 -32.144531 10.765625 -33.625 C 13.554688 -35.101562 16.679688 -35.84375 20.140625 -35.84375 C 23.597656 -35.84375 26.71875 -35.101562 29.5 -33.625 C 32.289062 -32.144531 34.488281 -30.019531 36.09375 -27.25 C 37.695312 -24.488281 38.5 -21.296875 38.5 -17.671875 C 38.5 -14.035156 37.6875 -10.832031 36.0625 -8.0625 C 34.4375 -5.300781 32.21875 -3.179688 29.40625 -1.703125 C 26.601562 -0.234375 23.472656 0.5 20.015625 0.5 Z M 20.015625 -8.859375 C 22.078125 -8.859375 23.835938 -9.617188 25.296875 -11.140625 C 26.753906 -12.660156 27.484375 -14.835938 27.484375 -17.671875 C 27.484375 -20.492188 26.773438 -22.664062 25.359375 -24.1875 C 23.941406 -25.707031 22.203125 -26.46875 20.140625 -26.46875 C 18.023438 -26.46875 16.269531 -25.71875 14.875 -24.21875 C 13.488281 -22.71875 12.796875 -20.535156 12.796875 -17.671875 C 12.796875 -14.835938 13.476562 -12.660156 14.84375 -11.140625 C 16.21875 -9.617188 17.941406 -8.859375 20.015625 -8.859375 Z M 20.015625 -8.859375 "/></g></g></g><g fill="#1b1729" fill-opacity="1"><g transform="translate(140.735489, 65.719919)"><g><path d="M 14.75 -46.859375 L 14.75 0 L 3.921875 0 L 3.921875 -46.859375 Z M 14.75 -46.859375 "/></g></g></g><g fill="#1b1729" fill-opacity="1"><g transform="translate(159.415868, 65.719919)"><g><path d="M 1.765625 -17.734375 C 1.765625 -21.359375 2.453125 -24.539062 3.828125 -27.28125 C 5.203125 -30.03125 7.070312 -32.144531 9.4375 -33.625 C 11.800781 -35.101562 14.441406 -35.84375 17.359375 -35.84375 C 19.847656 -35.84375 22.03125 -35.332031 23.90625 -34.3125 C 25.78125 -33.300781 27.226562 -31.972656 28.25 -30.328125 L 28.25 -35.34375 L 39.078125 -35.34375 L 39.078125 0 L 28.25 0 L 28.25 -5 C 27.1875 -3.351562 25.71875 -2.023438 23.84375 -1.015625 C 21.96875 -0.00390625 19.78125 0.5 17.28125 0.5 C 14.414062 0.5 11.800781 -0.242188 9.4375 -1.734375 C 7.070312 -3.234375 5.203125 -5.363281 3.828125 -8.125 C 2.453125 -10.894531 1.765625 -14.097656 1.765625 -17.734375 Z M 28.25 -17.671875 C 28.25 -20.367188 27.5 -22.5 26 -24.0625 C 24.5 -25.625 22.671875 -26.40625 20.515625 -26.40625 C 18.359375 -26.40625 16.53125 -25.632812 15.03125 -24.09375 C 13.539062 -22.550781 12.796875 -20.429688 12.796875 -17.734375 C 12.796875 -15.023438 13.539062 -12.878906 15.03125 -11.296875 C 16.53125 -9.710938 18.359375 -8.921875 20.515625 -8.921875 C 22.671875 -8.921875 24.5 -9.703125 26 -11.265625 C 27.5 -12.828125 28.25 -14.960938 28.25 -17.671875 Z M 28.25 -17.671875 "/></g></g></g><g fill="#1b1729" fill-opacity="1"><g transform="translate(202.412393, 65.719919)"><g><path d="M 14.75 -29.453125 C 16.019531 -31.390625 17.601562 -32.914062 19.5 -34.03125 C 21.40625 -35.15625 23.519531 -35.71875 25.84375 -35.71875 L 25.84375 -24.25 L 22.859375 -24.25 C 20.160156 -24.25 18.132812 -23.664062 16.78125 -22.5 C 15.425781 -21.34375 14.75 -19.3125 14.75 -16.40625 L 14.75 0 L 3.921875 0 L 3.921875 -35.34375 L 14.75 -35.34375 Z M 14.75 -29.453125 "/></g></g></g></g></g><g transform="matrix(1, 0, 0, 1, 608, 360)"><g clip-path="url(#140fad728e)"><g fill="#eff3f9" fill-opacity="1"><g transform="translate(0.249976, 65.719919)"><g><path d="M 9.375 -39.015625 C 7.46875 -39.015625 5.910156 -39.570312 4.703125 -40.6875 C 3.503906 -41.800781 2.90625 -43.1875 2.90625 -44.84375 C 2.90625 -46.53125 3.503906 -47.929688 4.703125 -49.046875 C 5.910156 -50.160156 7.46875 -50.71875 9.375 -50.71875 C 11.226562 -50.71875 12.753906 -50.160156 13.953125 -49.046875 C 15.160156 -47.929688 15.765625 -46.53125 15.765625 -44.84375 C 15.765625 -43.1875 15.160156 -41.800781 13.953125 -40.6875 C 12.753906 -39.570312 11.226562 -39.015625 9.375 -39.015625 Z M 14.75 -35.34375 L 14.75 0 L 3.921875 0 L 3.921875 -35.34375 Z M 14.75 -35.34375 "/></g></g></g><g fill="#eff3f9" fill-opacity="1"><g transform="translate(18.930354, 65.719919)"><g><path d="M 18.296875 0.5 C 15.210938 0.5 12.46875 -0.0234375 10.0625 -1.078125 C 7.65625 -2.128906 5.753906 -3.570312 4.359375 -5.40625 C 2.972656 -7.25 2.195312 -9.3125 2.03125 -11.59375 L 12.734375 -11.59375 C 12.859375 -10.363281 13.425781 -9.367188 14.4375 -8.609375 C 15.445312 -7.847656 16.691406 -7.46875 18.171875 -7.46875 C 19.523438 -7.46875 20.570312 -7.734375 21.3125 -8.265625 C 22.050781 -8.796875 22.421875 -9.484375 22.421875 -10.328125 C 22.421875 -11.335938 21.890625 -12.082031 20.828125 -12.5625 C 19.773438 -13.050781 18.066406 -13.59375 15.703125 -14.1875 C 13.171875 -14.78125 11.0625 -15.398438 9.375 -16.046875 C 7.6875 -16.703125 6.226562 -17.738281 5 -19.15625 C 3.78125 -20.570312 3.171875 -22.484375 3.171875 -24.890625 C 3.171875 -26.910156 3.726562 -28.753906 4.84375 -30.421875 C 5.957031 -32.097656 7.601562 -33.421875 9.78125 -34.390625 C 11.957031 -35.359375 14.546875 -35.84375 17.546875 -35.84375 C 21.972656 -35.84375 25.460938 -34.742188 28.015625 -32.546875 C 30.578125 -30.347656 32.046875 -27.4375 32.421875 -23.8125 L 22.421875 -23.8125 C 22.253906 -25.03125 21.710938 -26 20.796875 -26.71875 C 19.890625 -27.4375 18.695312 -27.796875 17.21875 -27.796875 C 15.957031 -27.796875 14.988281 -27.550781 14.3125 -27.0625 C 13.632812 -26.582031 13.296875 -25.921875 13.296875 -25.078125 C 13.296875 -24.066406 13.832031 -23.304688 14.90625 -22.796875 C 15.988281 -22.285156 17.671875 -21.78125 19.953125 -21.28125 C 22.566406 -20.601562 24.695312 -19.9375 26.34375 -19.28125 C 27.988281 -18.625 29.429688 -17.566406 30.671875 -16.109375 C 31.921875 -14.660156 32.566406 -12.710938 32.609375 -10.265625 C 32.609375 -8.191406 32.023438 -6.34375 30.859375 -4.71875 C 29.703125 -3.09375 28.035156 -1.816406 25.859375 -0.890625 C 23.691406 0.0351562 21.171875 0.5 18.296875 0.5 Z M 18.296875 0.5 "/></g></g></g><g fill="#eff3f9" fill-opacity="1"><g transform="translate(54.26476, 65.719919)"><g><path d="M 25.515625 0 L 14.75 -14.8125 L 14.75 0 L 3.921875 0 L 3.921875 -46.859375 L 14.75 -46.859375 L 14.75 -20.96875 L 25.453125 -35.34375 L 38.8125 -35.34375 L 24.125 -17.609375 L 38.953125 0 Z M 25.515625 0 "/></g></g></g><g fill="#eff3f9" fill-opacity="1"><g transform="translate(93.398551, 65.719919)"><g><path d="M 20.015625 0.5 C 16.546875 0.5 13.425781 -0.234375 10.65625 -1.703125 C 7.894531 -3.179688 5.722656 -5.289062 4.140625 -8.03125 C 2.554688 -10.78125 1.765625 -13.992188 1.765625 -17.671875 C 1.765625 -21.296875 2.566406 -24.488281 4.171875 -27.25 C 5.785156 -30.019531 7.984375 -32.144531 10.765625 -33.625 C 13.554688 -35.101562 16.679688 -35.84375 20.140625 -35.84375 C 23.597656 -35.84375 26.71875 -35.101562 29.5 -33.625 C 32.289062 -32.144531 34.488281 -30.019531 36.09375 -27.25 C 37.695312 -24.488281 38.5 -21.296875 38.5 -17.671875 C 38.5 -14.035156 37.6875 -10.832031 36.0625 -8.0625 C 34.4375 -5.300781 32.21875 -3.179688 29.40625 -1.703125 C 26.601562 -0.234375 23.472656 0.5 20.015625 0.5 Z M 20.015625 -8.859375 C 22.078125 -8.859375 23.835938 -9.617188 25.296875 -11.140625 C 26.753906 -12.660156 27.484375 -14.835938 27.484375 -17.671875 C 27.484375 -20.492188 26.773438 -22.664062 25.359375 -24.1875 C 23.941406 -25.707031 22.203125 -26.46875 20.140625 -26.46875 C 18.023438 -26.46875 16.269531 -25.71875 14.875 -24.21875 C 13.488281 -22.71875 12.796875 -20.535156 12.796875 -17.671875 C 12.796875 -14.835938 13.476562 -12.660156 14.84375 -11.140625 C 16.21875 -9.617188 17.941406 -8.859375 20.015625 -8.859375 Z M 20.015625 -8.859375 "/></g></g></g><g fill="#eff3f9" fill-opacity="1"><g transform="translate(133.735489, 65.719919)"><g><path d="M 14.75 -46.859375 L 14.75 0 L 3.921875 0 L 3.921875 -46.859375 Z M 14.75 -46.859375 "/></g></g></g><g fill="#eff3f9" fill-opacity="1"><g transform="translate(152.415868, 65.719919)"><g><path d="M 1.765625 -17.734375 C 1.765625 -21.359375 2.453125 -24.539062 3.828125 -27.28125 C 5.203125 -30.03125 7.070312 -32.144531 9.4375 -33.625 C 11.800781 -35.101562 14.441406 -35.84375 17.359375 -35.84375 C 19.847656 -35.84375 22.03125 -35.332031 23.90625 -34.3125 C 25.78125 -33.300781 27.226562 -31.972656 28.25 -30.328125 L 28.25 -35.34375 L 39.078125 -35.34375 L 39.078125 0 L 28.25 0 L 28.25 -5 C 27.1875 -3.351562 25.71875 -2.023438 23.84375 -1.015625 C 21.96875 -0.00390625 19.78125 0.5 17.28125 0.5 C 14.414062 0.5 11.800781 -0.242188 9.4375 -1.734375 C 7.070312 -3.234375 5.203125 -5.363281 3.828125 -8.125 C 2.453125 -10.894531 1.765625 -14.097656 1.765625 -17.734375 Z M 28.25 -17.671875 C 28.25 -20.367188 27.5 -22.5 26 -24.0625 C 24.5 -25.625 22.671875 -26.40625 20.515625 -26.40625 C 18.359375 -26.40625 16.53125 -25.632812 15.03125 -24.09375 C 13.539062 -22.550781 12.796875 -20.429688 12.796875 -17.734375 C 12.796875 -15.023438 13.539062 -12.878906 15.03125 -11.296875 C 16.53125 -9.710938 18.359375 -8.921875 20.515625 -8.921875 C 22.671875 -8.921875 24.5 -9.703125 26 -11.265625 C 27.5 -12.828125 28.25 -14.960938 28.25 -17.671875 Z M 28.25 -17.671875 "/></g></g></g><g fill="#eff3f9" fill-opacity="1"><g transform="translate(195.412393, 65.719919)"><g><path d="M 14.75 -29.453125 C 16.019531 -31.390625 17.601562 -32.914062 19.5 -34.03125 C 21.40625 -35.15625 23.519531 -35.71875 25.84375 -35.71875 L 25.84375 -24.25 L 22.859375 -24.25 C 20.160156 -24.25 18.132812 -23.664062 16.78125 -22.5 C 15.425781 -21.34375 14.75 -19.3125 14.75 -16.40625 L 14.75 0 L 3.921875 0 L 3.921875 -35.34375 L 14.75 -35.34375 Z M 14.75 -29.453125 "/></g></g></g></g></g></svg>