<svg xmlns="http://www.w3.org/2000/svg" xmlns:xlink="http://www.w3.org/1999/xlink" width="1920" zoomAndPan="magnify" viewBox="0 0 1440 809.999993" height="1080" preserveAspectRatio="xMidYMid meet" version="1.0"><defs><clipPath id="2e4d2d0eb4"><path d="M 639.761719 103.898438 L 666.460938 103.898438 L 666.460938 637.648438 L 639.761719 637.648438 Z M 639.761719 103.898438 " clip-rule="nonzero"/></clipPath><clipPath id="e95bfc1604"><path d="M 0.761719 0.898438 L 27.460938 0.898438 L 27.460938 534.648438 L 0.761719 534.648438 Z M 0.761719 0.898438 " clip-rule="nonzero"/></clipPath><clipPath id="17e16e6e71"><rect x="0" width="28" y="0" height="535"/></clipPath><clipPath id="7bb0027d0a"><path d="M 666.460938 115.148438 L 693.160156 115.148438 L 693.160156 701.246094 L 666.460938 701.246094 Z M 666.460938 115.148438 " clip-rule="nonzero"/></clipPath><clipPath id="778c23340b"><path d="M 0.460938 0.148438 L 27.160156 0.148438 L 27.160156 586.246094 L 0.460938 586.246094 Z M 0.460938 0.148438 " clip-rule="nonzero"/></clipPath><clipPath id="438a12baad"><rect x="0" width="28" y="0" height="587"/></clipPath><clipPath id="4c9ab20adc"><path d="M 693.160156 99.433594 L 719.855469 99.433594 L 719.855469 654.257812 L 693.160156 654.257812 Z M 693.160156 99.433594 " clip-rule="nonzero"/></clipPath><clipPath id="66343c3c02"><path d="M 0.160156 0.433594 L 26.855469 0.433594 L 26.855469 555.257812 L 0.160156 555.257812 Z M 0.160156 0.433594 " clip-rule="nonzero"/></clipPath><clipPath id="2f8dd15c60"><rect x="0" width="27" y="0" height="556"/></clipPath><clipPath id="5c7fbc374a"><path d="M 719.855469 103.898438 L 746.554688 103.898438 L 746.554688 629.09375 L 719.855469 629.09375 Z M 719.855469 103.898438 " clip-rule="nonzero"/></clipPath><clipPath id="2f4ced93a0"><path d="M 0.855469 0.898438 L 27.554688 0.898438 L 27.554688 526.09375 L 0.855469 526.09375 Z M 0.855469 0.898438 " clip-rule="nonzero"/></clipPath><clipPath id="a82ecaa61c"><rect x="0" width="28" y="0" height="527"/></clipPath><clipPath id="25dbe4b9fe"><path d="M 746.554688 109.304688 L 773.253906 109.304688 L 773.253906 667.96875 L 746.554688 667.96875 Z M 746.554688 109.304688 " clip-rule="nonzero"/></clipPath><clipPath id="30b57483d5"><path d="M 0.554688 0.304688 L 27.253906 0.304688 L 27.253906 558.96875 L 0.554688 558.96875 Z M 0.554688 0.304688 " clip-rule="nonzero"/></clipPath><clipPath id="a601e52ca9"><rect x="0" width="28" y="0" height="559"/></clipPath><clipPath id="3e0552813c"><path d="M 773.253906 115.148438 L 799.949219 115.148438 L 799.949219 709.546875 L 773.253906 709.546875 Z M 773.253906 115.148438 " clip-rule="nonzero"/></clipPath><clipPath id="10ee9f89e8"><path d="M 0.253906 0.148438 L 26.949219 0.148438 L 26.949219 594.546875 L 0.253906 594.546875 Z M 0.253906 0.148438 " clip-rule="nonzero"/></clipPath><clipPath id="4e514d70ee"><rect x="0" width="27" y="0" height="595"/></clipPath></defs><g clip-path="url(#2e4d2d0eb4)"><g transform="matrix(1, 0, 0, 1, 639, 103)"><g clip-path="url(#17e16e6e71)"><g clip-path="url(#e95bfc1604)"><path fill="#3c7c45" d="M 0.761719 0.898438 L 27.460938 0.898438 L 27.460938 534.644531 L 0.761719 534.644531 Z M 0.761719 0.898438 " fill-opacity="1" fill-rule="nonzero"/></g></g></g></g><g clip-path="url(#7bb0027d0a)"><g transform="matrix(1, 0, 0, 1, 666, 115)"><g clip-path="url(#438a12baad)"><g clip-path="url(#778c23340b)"><path fill="#ff0711" d="M 0.460938 0.148438 L 27.160156 0.148438 L 27.160156 586.25 L 0.460938 586.25 Z M 0.460938 0.148438 " fill-opacity="1" fill-rule="nonzero"/></g></g></g></g><g clip-path="url(#4c9ab20adc)"><g transform="matrix(1, 0, 0, 1, 693, 99)"><g clip-path="url(#2f8dd15c60)"><g clip-path="url(#66343c3c02)"><path fill="#ffdd00" d="M 0.160156 0.433594 L 26.855469 0.433594 L 26.855469 555.246094 L 0.160156 555.246094 Z M 0.160156 0.433594 " fill-opacity="1" fill-rule="nonzero"/></g></g></g></g><g clip-path="url(#5c7fbc374a)"><g transform="matrix(1, 0, 0, 1, 719, 103)"><g clip-path="url(#a82ecaa61c)"><g clip-path="url(#2f4ced93a0)"><path fill="#213dff" d="M 0.855469 0.898438 L 27.554688 0.898438 L 27.554688 526.09375 L 0.855469 526.09375 Z M 0.855469 0.898438 " fill-opacity="1" fill-rule="nonzero"/></g></g></g></g><g clip-path="url(#25dbe4b9fe)"><g transform="matrix(1, 0, 0, 1, 746, 109)"><g clip-path="url(#a601e52ca9)"><g clip-path="url(#30b57483d5)"><path fill="#8f00ff" d="M 0.554688 0.304688 L 27.253906 0.304688 L 27.253906 558.976562 L 0.554688 558.976562 Z M 0.554688 0.304688 " fill-opacity="1" fill-rule="nonzero"/></g></g></g></g><g clip-path="url(#3e0552813c)"><g transform="matrix(1, 0, 0, 1, 773, 115)"><g clip-path="url(#4e514d70ee)"><g clip-path="url(#10ee9f89e8)"><path fill="#ff7d00" d="M 0.253906 0.148438 L 26.949219 0.148438 L 26.949219 594.589844 L 0.253906 594.589844 Z M 0.253906 0.148438 " fill-opacity="1" fill-rule="nonzero"/></g></g></g></g></svg>